<?xml version="1.0" encoding="UTF-8" standalone="no"?>
<!-- Created with Inkscape (http://www.inkscape.org/) -->

<svg
   xmlns:dc="http://purl.org/dc/elements/1.1/"
   xmlns:cc="http://creativecommons.org/ns#"
   xmlns:rdf="http://www.w3.org/1999/02/22-rdf-syntax-ns#"
   xmlns:svg="http://www.w3.org/2000/svg"
   xmlns="http://www.w3.org/2000/svg"
   xmlns:sodipodi="http://sodipodi.sourceforge.net/DTD/sodipodi-0.dtd"
   xmlns:inkscape="http://www.inkscape.org/namespaces/inkscape"
   width="210mm"
   height="297mm"
   viewBox="0 0 210 297"
   version="1.1"
   id="svg8"
   inkscape:version="0.92.1 r15371"
   sodipodi:docname="logo.svg">
  <defs
     id="defs2" />
  <sodipodi:namedview
     id="base"
     pagecolor="#ffffff"
     bordercolor="#666666"
     borderopacity="1.0"
     inkscape:pageopacity="0.0"
     inkscape:pageshadow="2"
     inkscape:zoom="0.25"
     inkscape:cx="3597.6426"
     inkscape:cy="2335.7646"
     inkscape:document-units="px"
     inkscape:current-layer="layer1"
     showgrid="false"
     showborder="false"
     inkscape:window-width="1920"
     inkscape:window-height="1016"
     inkscape:window-x="0"
     inkscape:window-y="27"
     inkscape:window-maximized="1"
     showguides="true"
     inkscape:guide-bbox="true"
     inkscape:snap-grids="false"
     inkscape:snap-to-guides="false">
    <inkscape:grid
       type="xygrid"
       id="grid4875" />
  </sodipodi:namedview>
  <metadata
     id="metadata5">
    <rdf:RDF>
      <cc:Work
         rdf:about="">
        <dc:format>image/svg+xml</dc:format>
        <dc:type
           rdf:resource="http://purl.org/dc/dcmitype/StillImage" />
        <dc:title />
      </cc:Work>
    </rdf:RDF>
  </metadata>
  <g
     inkscape:label="Capa 1"
     inkscape:groupmode="layer"
     id="layer1">
    <path
       style="opacity:1;fill:#00ff00;fill-opacity:1;stroke-width:0.99999994"
       d="m 2563.0566,-565.60742 v 48 c 0,-26.592 21.408,-47.99996 48,-48 z"
       transform="scale(0.26458333)"
       id="path4546" />
    <path
       style="opacity:1;fill:#00ff00;fill-opacity:1;stroke-width:0.99999994"
       d="m 3115.1348,-565.60742 c 26.5555,0.0421 47.9218,21.43226 47.9218,47.99804 v -47.99804 z"
       transform="scale(0.26458333)"
       id="path4544" />
    <path
       style="opacity:1;fill:#00ff00;fill-opacity:1;stroke-width:0.99999994"
       d="m 3163.0566,-13.609375 c 0,26.592 -21.408,47.999962 -48,48 l -504,0.002 h 552 z"
       transform="scale(0.26458333)"
       id="path4540" />
    <path
       style="opacity:1;fill:#00ff00;fill-opacity:1;stroke-width:0.99999994"
       d="m 2611.0566,34.392578 c -26.592,3.8e-5 -48,-21.408 -48,-48 v 48 z"
       transform="scale(0.26458333)"
       id="rect4532" />
    <path
       inkscape:connector-curvature="0"
       id="path5117"
       d="m 690.84209,-149.65043 c -7.0358,1e-5 -12.7,5.66421 -12.7,12.70001 V -3.6004213 c 0,7.0358 5.6642,12.7 12.7,12.69999 l 133.35,-1.3e-4 c 7.0358,-10e-6 12.7,-5.66421 12.7,-12.70001 V -136.95058 c 0,-7.0358 -5.6642,-12.69999 -12.7,-12.69998 z m 7.14375,19.84374 92.60417,-9e-5 c 14.65788,-1e-5 26.45828,11.80039 26.45828,26.45831 v 66.145836 c 0,14.65791 -11.8004,26.458343 -26.45828,26.458353 l -92.60417,1e-4 z"
       style="fill:#0d0b0d;fill-opacity:1;stroke-width:0.26458332" />
    <path
       style="fill:#0d0b0d;fill-opacity:1;stroke-width:0.26458332"
       d="m 694.06738,39.410056 c -7.0358,7e-6 -12.7,5.664212 -12.7,12.700012 V 185.46006 c 0,7.0358 5.6642,12.7 12.7,12.69999 l 133.35,-1.3e-4 c 7.0358,-1e-5 12.7,-5.66421 12.7,-12.70001 V 52.109912 c 0,-7.0358 -5.6642,-12.699994 -12.7,-12.699987 z m 7.14375,19.843743 92.60417,-9.1e-5 c 14.65791,-1.5e-5 26.45833,11.80039 26.45833,26.458311 v 66.145831 c 0,14.65791 -11.80042,26.45834 -26.45833,26.45835 l -92.60417,1e-4 z"
       id="rect3680"
       inkscape:connector-curvature="0" />
    <circle
       style="opacity:0.42000002;fill:#0d0b0d;fill-opacity:1;stroke-width:0.31769776"
       id="path4636"
       cx="730.97675"
       cy="89.019417"
       r="23.8125" />
    <circle
       r="23.8125"
       cy="89.019417"
       cx="790.508"
       id="circle4640"
       style="opacity:0.42000002;fill:#0d0b0d;fill-opacity:1;stroke-width:0.31769776" />
    <circle
       style="opacity:0.42000002;fill:#0d0b0d;fill-opacity:1;stroke-width:0.31769776"
       id="circle4644"
       cx="730.97675"
       cy="148.55067"
       r="23.8125" />
    <circle
       r="23.8125"
       cy="148.55067"
       cx="790.508"
       id="circle4648"
       style="opacity:0.42000002;fill:#0d0b0d;fill-opacity:1;stroke-width:0.31769776" />
    <path
       style="opacity:1;fill:#0d0b0d;fill-opacity:1;stroke-width:0.26458332"
       d="m 694.06097,214.77965 c -7.0358,1e-5 -12.7,5.6642 -12.7,12.7 v 133.35 c 0,7.0358 5.6642,12.70001 12.7,12.7 H 827.411 c 7.0358,-1e-5 12.7,-5.6642 12.7,-12.7 v -133.35 c 0,-7.0358 -5.6642,-12.7 -12.7,-12.7 z m 7.1438,19.84375 h 92.60413 c 14.6579,-1e-5 26.4584,11.80041 26.4584,26.45834 v 66.14583 c 0,14.6579 -11.8005,26.45832 -26.4584,26.45833 h -92.60413 z m 119.06093,33.07344 c 0,14.6579 -11.8004,26.45832 -26.4583,26.45833 14.6579,-3e-5 26.4583,11.80041 26.4583,26.45833 v -26.45833 z"
       id="path4753"
       inkscape:connector-curvature="0" />
    <circle
       style="opacity:0.42000002;fill:#0d0b0d;fill-opacity:1;stroke-width:0.31769776"
       id="circle4837"
       cx="790.50165"
       cy="264.38907"
       r="23.8125" />
    <circle
       r="23.8125"
       cy="323.92032"
       cx="730.9704"
       id="circle4839"
       style="opacity:0.42000002;fill:#0d0b0d;fill-opacity:1;stroke-width:0.31769776" />
    <path
       inkscape:connector-curvature="0"
       id="path4937"
       d="m 881.91515,43.464058 c -7.0358,-4.062114 -12.7,-1.668136 -12.7,5.367664 V 182.18171 c 0,7.0358 5.6642,15.97023 12.7,20.03234 l 133.35005,76.98954 c 7.0358,4.06211 12.7,1.66814 12.7,-5.36766 v -133.35 c 0,-7.0358 -5.6642,-15.97022 -12.7,-20.03233 z m 7.14375,23.968189 92.60417,53.464953 c 14.6579,8.46273 26.45833,27.0761 26.45833,41.73402 v 66.14582 c 0,14.65791 -11.80043,19.64538 -26.45833,11.18265 L 889.0589,186.49474 Z"
       style="fill:#0d0b0d;fill-opacity:1;stroke-width:0.26458332" />
    <ellipse
       cy="-416.10052"
       cx="1060.9672"
       id="circle4939"
       style="opacity:0.42000002;fill:#0d0b0d;fill-opacity:1;stroke-width:0.34138846"
       transform="matrix(0.8660254,0.5,0,1,0,0)"
       rx="27.496307"
       ry="23.8125" />
    <ellipse
       style="opacity:0.42000002;fill:#0d0b0d;fill-opacity:1;stroke-width:0.34138846"
       id="circle4941"
       cx="1129.7079"
       cy="-416.10052"
       transform="matrix(0.8660254,0.5,0,1,0,0)"
       rx="27.496307"
       ry="23.8125" />
    <ellipse
       cy="-356.56927"
       cx="1060.9672"
       id="circle4943"
       style="opacity:0.42000002;fill:#0d0b0d;fill-opacity:1;stroke-width:0.34138846"
       transform="matrix(0.8660254,0.5,0,1,0,0)"
       rx="27.496307"
       ry="23.8125" />
    <ellipse
       style="opacity:0.42000002;fill:#0d0b0d;fill-opacity:1;stroke-width:0.34138846"
       id="circle4945"
       cx="1129.7079"
       cy="-356.56927"
       transform="matrix(0.8660254,0.5,0,1,0,0)"
       rx="27.496307"
       ry="23.8125" />
    <path
       inkscape:connector-curvature="0"
       id="path4954"
       d="m 507.26517,300.37032 c -7.0358,4.06213 -12.7,12.99654 -12.7,20.03234 v 133.35001 c 0,7.0358 5.6642,9.42978 12.7,5.36765 l 133.35,-76.98966 c 7.0358,-4.06213 12.7,-12.99655 12.7,-20.03235 v -133.35 c 0,-7.0358 -5.6642,-9.42977 -12.7,-5.36765 z m 7.1438,15.71927 92.6041,-53.465 c 14.6579,-8.46275 26.4584,-3.47536 26.4584,11.18257 V 339.953 c 0,14.6579 -11.8005,33.27134 -26.4584,41.73409 l -92.6041,53.465 z m 119.0609,-35.6664 c 0,14.6579 -11.8004,33.27129 -26.4583,41.73404 14.6579,-8.46277 26.4583,-3.4753 26.4583,11.18262 v -26.45833 z"
       style="opacity:1;fill:#0d0b0d;fill-opacity:1;stroke-width:0.26458332" />
    <ellipse
       cy="642.84943"
       cx="697.09949"
       id="circle4956"
       style="opacity:0.42000002;fill:#0d0b0d;fill-opacity:1;stroke-width:0.34138846"
       transform="matrix(0.8660254,-0.5,0,1,0,0)"
       rx="27.496307"
       ry="23.8125" />
    <ellipse
       style="opacity:0.42000002;fill:#0d0b0d;fill-opacity:1;stroke-width:0.34138846"
       id="circle4958"
       cx="628.35876"
       cy="702.38068"
       transform="matrix(0.8660254,-0.5,0,1,0,0)"
       rx="27.496307"
       ry="23.8125" />
    <ellipse
       style="opacity:0.42000002;fill:#0d0b0d;fill-opacity:1;stroke-width:0.63539553"
       id="circle5155"
       cx="907.8587"
       cy="-127.21262"
       r="47.625" />
    <ellipse
       r="47.625"
       cy="-111.86559"
       cx="756.07068"
       id="ellipse5173"
       style="opacity:0.42000002;fill:#0d0b0d;fill-opacity:1;stroke-width:0.63539553" />
    <g
       id="g5252"
       transform="translate(36.26296,75.107808)">
      <circle
         r="47.625"
         style="opacity:0.42000002;fill:#0d0b0d;fill-opacity:1;stroke-width:0.63539553"
         id="circle5175"
         cx="721.25415"
         cy="-145.3833" />
      <path
         transform="scale(0.26458333)"
         id="path5246"
         d="m 2905.7109,-557.63281 -255.4453,68.44531 a 135,135 0 0 0 120.7344,74.70703 135,135 0 0 0 135,-135 135,135 0 0 0 -0.2891,-8.15234 z"
         style="opacity:0.42000002;fill:#0d0b0d;fill-opacity:1;stroke-width:1.80112112"
         inkscape:connector-curvature="0" />
    </g>
    <path
       id="path4548"
       d="m 681.36738,39.410056 v 12.7 c 0,-7.0358 5.6642,-12.699989 12.7,-12.7 z"
       style="opacity:1;fill:#00ff00;fill-opacity:1;stroke-width:0.26458332"
       inkscape:connector-curvature="0" />
    <path
       id="path4550"
       d="m 827.43807,39.410056 c 7.02614,0.01114 12.67931,5.670619 12.67931,12.699481 V 39.410056 Z"
       style="opacity:1;fill:#00ff00;fill-opacity:1;stroke-width:0.26458332"
       inkscape:connector-curvature="0" />
    <path
       id="path4552"
       d="m 840.11738,185.45954 c 0,7.0358 -5.6642,12.69999 -12.7,12.7 l -133.35,5.3e-4 h 146.05 z"
       style="opacity:1;fill:#00ff00;fill-opacity:1;stroke-width:0.26458332"
       inkscape:connector-curvature="0" />
    <path
       id="path4554"
       d="m 694.06738,198.16005 c -7.0358,10e-6 -12.7,-5.6642 -12.7,-12.7 v 12.7 z"
       style="opacity:1;fill:#00ff00;fill-opacity:1;stroke-width:0.26458332"
       inkscape:connector-curvature="0" />
    <path
       inkscape:connector-curvature="0"
       style="opacity:1;fill:#00ff00;fill-opacity:1;stroke-width:0.26458332"
       d="m 681.36097,214.77965 v 12.7 c 0,-7.0358 5.6642,-12.69999 12.7,-12.7 z"
       id="path4556" />
    <path
       inkscape:connector-curvature="0"
       style="opacity:1;fill:#00ff00;fill-opacity:1;stroke-width:0.26458332"
       d="m 827.43166,214.77965 c 7.02614,0.0111 12.67931,5.67062 12.67931,12.69948 v -12.69948 z"
       id="path4558" />
    <path
       inkscape:connector-curvature="0"
       style="opacity:1;fill:#00ff00;fill-opacity:1;stroke-width:0.26458332"
       d="m 840.11097,360.82913 c 0,7.0358 -5.6642,12.69999 -12.7,12.7 l -133.35,5.3e-4 h 146.05 z"
       id="path4560" />
    <path
       inkscape:connector-curvature="0"
       style="opacity:1;fill:#00ff00;fill-opacity:1;stroke-width:0.26458332"
       d="m 694.06097,373.52964 c -7.0358,1e-5 -12.7,-5.6642 -12.7,-12.7 v 12.7 z"
       id="path4562" />
    <g
       id="g5123"
       inkscape:export-xdpi="96"
       inkscape:export-ydpi="96">
      <path
         id="rect4999"
         d="m 1276.3252,174.68288 v 0.0145 c 7.0324,4.06014 12.6945,12.98781 12.7,20.02203 0.01,-7.03422 5.6677,-15.96187 12.7,-20.02203 v -0.0145 c -7.0358,4.06447 -18.3642,4.06447 -25.4,0 z"
         style="opacity:1;fill:#0d0b0d;fill-opacity:1;stroke-width:0.18244305"
         inkscape:connector-curvature="0" />
      <path
         id="path4997"
         d="m 1289.0252,328.0797 c 0,6.28632 -4.5231,8.86238 -10.5048,6.44353 6.2433,2.61366 14.6937,2.62131 20.9506,0.0238 -5.9523,2.3781 -10.4458,-0.20169 -10.4458,-6.46732 z"
         style="opacity:1;fill:#0d0b0d;fill-opacity:1;stroke-width:0.23230262"
         inkscape:connector-curvature="0" />
      <path
         id="rect4955"
         d="m 1435.7366,83.378888 c 6.3586,4.078833 6.1452,10.323222 -0.6407,14.256494 v 0.06098 c 7.0043,-4.032869 12.6428,-1.663459 12.6777,5.314918 v 0 c 0,-6.813658 -5.3129,-15.407177 -12.0386,-19.63239 z"
         style="opacity:1;fill:#0d0b0d;fill-opacity:1;stroke-width:0.26458332"
         inkscape:connector-curvature="0" />
      <path
         id="rect4940"
         d="m 1140.9257,84.391748 c -6.0541,4.470069 -10.6505,12.346175 -10.6505,18.683612 0,-7.035805 5.6642,-9.429744 12.7,-5.367631 v -0.05943 c -6.2668,-3.62027 -6.9465,-9.206288 -2.0495,-13.256553 z"
         style="opacity:1;fill:#0d0b0d;fill-opacity:1;stroke-width:0.26458332"
         inkscape:connector-curvature="0" />
      <path
         inkscape:connector-curvature="0"
         id="path4706"
         d="m 1142.975,82.975187 c -7.0358,4.064485 -7.0358,10.608736 0,14.673215 l 133.35,77.034348 c 7.0358,4.06448 18.3642,4.06448 25.4,0 l 133.3498,-77.03443 c 7.0358,-4.064485 7.0358,-10.608737 0,-14.673216 l -133.35,-77.0343548 c -7.0358,-4.064479 -18.3642,-4.0644733 -25.4,1.16e-5 z m 26.9874,7.336628 92.6041,-53.496149 c 14.6579,-8.46766 38.2587,-8.46766 52.9166,6e-6 l 66.1458,38.211485 c 14.658,8.467661 14.658,22.101518 10e-5,30.569183 l -92.6041,53.49615 z"
         style="fill:#0d0b0d;fill-opacity:1;stroke-width:0.28439578" />
      <path
         style="fill:#0d0b0d;fill-opacity:1;stroke-width:0.26458332"
         d="m 1142.975,97.707652 c -7.0358,-4.062114 -12.7,-1.668137 -12.7,5.367668 v 133.34999 c 0,7.0358 5.6642,15.97022 12.7,20.03233 l 133.35,76.98953 c 7.0358,4.06211 12.7,1.66814 12.7,-5.36766 v -133.35 c 0,-7.0358 -5.6642,-15.97022 -12.7,-20.03233 z m 7.1437,23.968158 92.6042,53.46497 c 14.6579,8.46273 26.4583,27.0761 26.4583,41.73402 v 66.14583 c 0,14.65791 -11.8004,19.64537 -26.4583,11.18264 l -92.6042,-53.46496 z"
         id="path4714"
         inkscape:connector-curvature="0" />
      <g
         id="g4712"
         transform="matrix(0.99999994,-0.57768542,0.99999998,0.57768542,713.15408,590.95557)">
        <circle
           r="47.625"
           style="opacity:0.42000002;fill:#0d0b0d;fill-opacity:1;stroke-width:0.63539553"
           id="circle4708"
           cx="721.25415"
           cy="-145.3833" />
        <path
           transform="scale(0.26458333)"
           id="path4710"
           d="m 2905.7109,-557.63281 -255.4453,68.44531 a 135,135 0 0 0 120.7344,74.70703 135,135 0 0 0 135,-135 135,135 0 0 0 -0.2891,-8.15234 z"
           style="opacity:0.42000002;fill:#0d0b0d;fill-opacity:1;stroke-width:1.80112112"
           inkscape:connector-curvature="0" />
      </g>
      <ellipse
         ry="23.8125"
         rx="27.496307"
         transform="matrix(0.8660254,0.5,0,1,0,0)"
         style="opacity:0.42000002;fill:#0d0b0d;fill-opacity:1;stroke-width:0.34138846"
         id="circle4716"
         cx="1362.4131"
         cy="-512.5799" />
      <ellipse
         ry="23.8125"
         rx="27.496307"
         transform="matrix(0.8660254,0.5,0,1,0,0)"
         cy="-512.5799"
         cx="1431.1538"
         id="circle4718"
         style="opacity:0.42000002;fill:#0d0b0d;fill-opacity:1;stroke-width:0.34138846" />
      <ellipse
         ry="23.8125"
         rx="27.496307"
         transform="matrix(0.8660254,0.5,0,1,0,0)"
         style="opacity:0.42000002;fill:#0d0b0d;fill-opacity:1;stroke-width:0.34138846"
         id="circle4720"
         cx="1362.4131"
         cy="-453.04865" />
      <ellipse
         ry="23.8125"
         rx="27.496307"
         transform="matrix(0.8660254,0.5,0,1,0,0)"
         cy="-453.04865"
         cx="1431.1538"
         id="circle4722"
         style="opacity:0.42000002;fill:#0d0b0d;fill-opacity:1;stroke-width:0.34138846" />
      <path
         style="opacity:1;fill:#0d0b0d;fill-opacity:1;stroke-width:0.26458332"
         d="m 1301.725,174.69724 c -7.0358,4.06213 -12.7,12.99655 -12.7,20.03235 v 133.35 c 0,7.0358 5.6642,9.42978 12.7,5.36765 l 133.35,-76.98966 c 7.0358,-4.06213 12.7,-12.99655 12.7,-20.03235 v -133.35 c 0,-7.035796 -5.6642,-9.429769 -12.7,-5.367648 z m 7.1438,15.71928 92.6041,-53.46501 c 14.6579,-8.46275 26.4584,-3.47535 26.4584,11.18258 v 66.14583 c 0,14.6579 -11.8005,33.27134 -26.4584,41.73409 l -92.6041,53.46501 z m 119.0609,-35.66641 c 0,14.6579 -11.8004,33.27129 -26.4583,41.73404 14.6579,-8.46277 26.4583,-3.4753 26.4583,11.18262 v -26.45833 z"
         id="path4732"
         inkscape:connector-curvature="0" />
      <ellipse
         ry="23.8125"
         rx="27.496307"
         transform="matrix(0.8660254,-0.5,0,1,0,0)"
         style="opacity:0.42000002;fill:#0d0b0d;fill-opacity:1;stroke-width:0.34138846"
         id="circle4734"
         cx="1614.4626"
         cy="975.85791" />
      <ellipse
         ry="23.8125"
         rx="27.496307"
         transform="matrix(0.8660254,-0.5,0,1,0,0)"
         cy="1035.3892"
         cx="1545.7218"
         id="circle4736"
         style="opacity:0.42000002;fill:#0d0b0d;fill-opacity:1;stroke-width:0.34138846" />
      <path
         style="fill:#0d0b0d;fill-opacity:1;stroke-width:0.28439578"
         d="m 1142.975,82.975187 c -7.0358,4.064485 -7.0358,10.608736 0,14.673215 l 133.35,77.034348 c 7.0358,4.06448 18.3642,4.06448 25.4,0 l 133.3498,-77.03443 c 7.0358,-4.064485 7.0358,-10.608737 0,-14.673216 l -133.35,-77.0343548 c -7.0358,-4.064479 -18.3642,-4.0644733 -25.4,1.16e-5 z m 26.9874,7.336628 92.6041,-53.496149 c 14.6579,-8.46766 38.2587,-8.46766 52.9166,6e-6 l 66.1458,38.211485 c 14.658,8.467661 14.658,22.101518 10e-5,30.569183 l -92.6041,53.49615 z"
         id="path5104"
         inkscape:connector-curvature="0" />
    </g>
    <g
       id="g5159"
       transform="matrix(1,0,0,0.95174733,-598.33376,-588.767)"
       inkscape:export-xdpi="96"
       inkscape:export-ydpi="96">
      <path
         inkscape:connector-curvature="0"
         style="opacity:1;fill:#0d0b0d;fill-opacity:1;stroke-width:0.18244305"
         d="m 1276.3252,174.68288 v 0.0145 c 7.0324,4.06014 12.6945,12.98781 12.7,20.02203 0.01,-7.03422 5.6677,-15.96187 12.7,-20.02203 v -0.0145 c -7.0358,4.06447 -18.3642,4.06447 -25.4,0 z"
         id="path5125" />
      <path
         inkscape:connector-curvature="0"
         style="opacity:1;fill:#0d0b0d;fill-opacity:1;stroke-width:0.23230262"
         d="m 1289.0252,328.0797 c 0,6.28632 -4.5231,8.86238 -10.5048,6.44353 6.2433,2.61366 14.6937,2.62131 20.9506,0.0238 -5.9523,2.3781 -10.4458,-0.20169 -10.4458,-6.46732 z"
         id="path5127" />
      <path
         inkscape:connector-curvature="0"
         style="opacity:1;fill:#0d0b0d;fill-opacity:1;stroke-width:0.26458332"
         d="m 1435.7366,83.378888 c 6.3586,4.078833 6.1452,10.323222 -0.6407,14.256494 v 0.06098 c 7.0043,-4.032869 12.6428,-1.663459 12.6777,5.314918 v 0 c 0,-6.813658 -5.3129,-15.407177 -12.0386,-19.63239 z"
         id="path5129" />
      <path
         inkscape:connector-curvature="0"
         style="opacity:1;fill:#0d0b0d;fill-opacity:1;stroke-width:0.26458332"
         d="m 1140.9257,84.391748 c -6.0541,4.470069 -10.6505,12.346175 -10.6505,18.683612 0,-7.035805 5.6642,-9.429744 12.7,-5.367631 v -0.05943 c -6.2668,-3.62027 -6.9465,-9.206288 -2.0495,-13.256553 z"
         id="path5131" />
      <path
         style="fill:#0d0b0d;fill-opacity:1;stroke-width:0.28439578"
         d="m 1142.975,82.975187 c -7.0358,4.064485 -7.0358,10.608736 0,14.673215 l 133.35,77.034348 c 7.0358,4.06448 18.3642,4.06448 25.4,0 l 133.3498,-77.03443 c 7.0358,-4.064485 7.0358,-10.608737 0,-14.673216 l -133.35,-77.0343548 c -7.0358,-4.064479 -18.3642,-4.0644733 -25.4,1.16e-5 z m 26.9874,7.336628 92.6041,-53.496149 c 14.6579,-8.46766 38.2587,-8.46766 52.9166,6e-6 l 66.1458,38.211485 c 14.658,8.467661 14.658,22.101518 10e-5,30.569183 l -92.6041,53.49615 z"
         id="path5133"
         inkscape:connector-curvature="0" />
      <path
         inkscape:connector-curvature="0"
         id="path5135"
         d="m 1142.975,97.707652 c -7.0358,-4.062114 -12.7,-1.668137 -12.7,5.367668 v 133.34999 c 0,7.0358 5.6642,15.97022 12.7,20.03233 l 133.35,76.98953 c 7.0358,4.06211 12.7,1.66814 12.7,-5.36766 v -133.35 c 0,-7.0358 -5.6642,-15.97022 -12.7,-20.03233 z m 7.1437,23.968158 92.6042,53.46497 c 14.6579,8.46273 26.4583,27.0761 26.4583,41.73402 v 66.14583 c 0,14.65791 -11.8004,19.64537 -26.4583,11.18264 l -92.6042,-53.46496 z"
         style="fill:#0d0b0d;fill-opacity:1;stroke-width:0.26458332" />
      <g
         transform="matrix(0.99999994,-0.57768542,0.99999998,0.57768542,713.15408,590.95557)"
         id="g5141">
        <circle
           cy="-145.3833"
           cx="721.25415"
           id="circle5137"
           style="opacity:0.42000002;fill:#0d0b0d;fill-opacity:1;stroke-width:0.63539553"
           r="47.625" />
        <path
           inkscape:connector-curvature="0"
           style="opacity:0.42000002;fill:#0d0b0d;fill-opacity:1;stroke-width:1.80112112"
           d="m 2905.7109,-557.63281 -255.4453,68.44531 a 135,135 0 0 0 120.7344,74.70703 135,135 0 0 0 135,-135 135,135 0 0 0 -0.2891,-8.15234 z"
           id="path5139"
           transform="scale(0.26458333)" />
      </g>
      <ellipse
         cy="-512.5799"
         cx="1362.4131"
         id="ellipse5143"
         style="opacity:0.42000002;fill:#0d0b0d;fill-opacity:1;stroke-width:0.34138846"
         transform="matrix(0.8660254,0.5,0,1,0,0)"
         rx="27.496307"
         ry="23.8125" />
      <ellipse
         style="opacity:0.42000002;fill:#0d0b0d;fill-opacity:1;stroke-width:0.34138846"
         id="ellipse5145"
         cx="1431.1538"
         cy="-512.5799"
         transform="matrix(0.8660254,0.5,0,1,0,0)"
         rx="27.496307"
         ry="23.8125" />
      <ellipse
         cy="-453.04865"
         cx="1362.4131"
         id="ellipse5147"
         style="opacity:0.42000002;fill:#0d0b0d;fill-opacity:1;stroke-width:0.34138846"
         transform="matrix(0.8660254,0.5,0,1,0,0)"
         rx="27.496307"
         ry="23.8125" />
      <ellipse
         style="opacity:0.42000002;fill:#0d0b0d;fill-opacity:1;stroke-width:0.34138846"
         id="ellipse5149"
         cx="1431.1538"
         cy="-453.04865"
         transform="matrix(0.8660254,0.5,0,1,0,0)"
         rx="27.496307"
         ry="23.8125" />
      <path
         inkscape:connector-curvature="0"
         id="path5151"
         d="m 1301.725,174.69724 c -7.0358,4.06213 -12.7,12.99655 -12.7,20.03235 v 133.35 c 0,7.0358 5.6642,9.42978 12.7,5.36765 l 133.35,-76.98966 c 7.0358,-4.06213 12.7,-12.99655 12.7,-20.03235 v -133.35 c 0,-7.035796 -5.6642,-9.429769 -12.7,-5.367648 z m 7.1438,15.71928 92.6041,-53.46501 c 14.6579,-8.46275 26.4584,-3.47535 26.4584,11.18258 v 66.14583 c 0,14.6579 -11.8005,33.27134 -26.4584,41.73409 l -92.6041,53.46501 z m 119.0609,-35.66641 c 0,14.6579 -11.8004,33.27129 -26.4583,41.73404 14.6579,-8.46277 26.4583,-3.4753 26.4583,11.18262 v -26.45833 z"
         style="opacity:1;fill:#0d0b0d;fill-opacity:1;stroke-width:0.26458332" />
      <ellipse
         cy="975.85791"
         cx="1614.4626"
         id="ellipse5153"
         style="opacity:0.42000002;fill:#0d0b0d;fill-opacity:1;stroke-width:0.34138846"
         transform="matrix(0.8660254,-0.5,0,1,0,0)"
         rx="27.496307"
         ry="23.8125" />
      <ellipse
         style="opacity:0.42000002;fill:#0d0b0d;fill-opacity:1;stroke-width:0.34138846"
         id="ellipse5155"
         cx="1545.7218"
         cy="1035.3892"
         transform="matrix(0.8660254,-0.5,0,1,0,0)"
         rx="27.496307"
         ry="23.8125" />
      <path
         inkscape:connector-curvature="0"
         id="path5157"
         d="m 1142.975,82.975187 c -7.0358,4.064485 -7.0358,10.608736 0,14.673215 l 133.35,77.034348 c 7.0358,4.06448 18.3642,4.06448 25.4,0 l 133.3498,-77.03443 c 7.0358,-4.064485 7.0358,-10.608737 0,-14.673216 l -133.35,-77.0343548 c -7.0358,-4.064479 -18.3642,-4.0644733 -25.4,1.16e-5 z m 26.9874,7.336628 92.6041,-53.496149 c 14.6579,-8.46766 38.2587,-8.46766 52.9166,6e-6 l 66.1458,38.211485 c 14.658,8.467661 14.658,22.101518 10e-5,30.569183 l -92.6041,53.49615 z"
         style="fill:#0d0b0d;fill-opacity:1;stroke-width:0.28439578" />
    </g>
    <g
       inkscape:export-ydpi="96"
       inkscape:export-xdpi="96"
       transform="matrix(0.85333334,0,0,0.81215772,-83.078459,-565.07992)"
       id="g5195">
      <path
         id="path5161"
         d="m 1276.3252,174.68288 v 0.0145 c 7.0324,4.06014 12.6945,12.98781 12.7,20.02203 0.01,-7.03422 5.6677,-15.96187 12.7,-20.02203 v -0.0145 c -7.0358,4.06447 -18.3642,4.06447 -25.4,0 z"
         style="opacity:1;fill:#0d0b0d;fill-opacity:1;stroke-width:0.18244305"
         inkscape:connector-curvature="0" />
      <path
         id="path5163"
         d="m 1289.0252,328.0797 c 0,6.28632 -4.5231,8.86238 -10.5048,6.44353 6.2433,2.61366 14.6937,2.62131 20.9506,0.0238 -5.9523,2.3781 -10.4458,-0.20169 -10.4458,-6.46732 z"
         style="opacity:1;fill:#0d0b0d;fill-opacity:1;stroke-width:0.23230262"
         inkscape:connector-curvature="0" />
      <path
         id="path5165"
         d="m 1435.7366,83.378888 c 6.3586,4.078833 6.1452,10.323222 -0.6407,14.256494 v 0.06098 c 7.0043,-4.032869 12.6428,-1.663459 12.6777,5.314918 v 0 c 0,-6.813658 -5.3129,-15.407177 -12.0386,-19.63239 z"
         style="opacity:1;fill:#0d0b0d;fill-opacity:1;stroke-width:0.26458332"
         inkscape:connector-curvature="0" />
      <path
         id="path5167"
         d="m 1140.9257,84.391748 c -6.0541,4.470069 -10.6505,12.346175 -10.6505,18.683612 0,-7.035805 5.6642,-9.429744 12.7,-5.367631 v -0.05943 c -6.2668,-3.62027 -6.9465,-9.206288 -2.0495,-13.256553 z"
         style="opacity:1;fill:#0d0b0d;fill-opacity:1;stroke-width:0.26458332"
         inkscape:connector-curvature="0" />
      <path
         inkscape:connector-curvature="0"
         id="path5169"
         d="m 1142.975,82.975187 c -7.0358,4.064485 -7.0358,10.608736 0,14.673215 l 133.35,77.034348 c 7.0358,4.06448 18.3642,4.06448 25.4,0 l 133.3498,-77.03443 c 7.0358,-4.064485 7.0358,-10.608737 0,-14.673216 l -133.35,-77.0343548 c -7.0358,-4.064479 -18.3642,-4.0644733 -25.4,1.16e-5 z m 26.9874,7.336628 92.6041,-53.496149 c 14.6579,-8.46766 38.2587,-8.46766 52.9166,6e-6 l 66.1458,38.211485 c 14.658,8.467661 14.658,22.101518 10e-5,30.569183 l -92.6041,53.49615 z"
         style="fill:#0d0b0d;fill-opacity:1;stroke-width:0.28439578" />
      <path
         style="fill:#0d0b0d;fill-opacity:1;stroke-width:0.26458332"
         d="m 1142.975,97.707652 c -7.0358,-4.062114 -12.7,-1.668137 -12.7,5.367668 v 133.34999 c 0,7.0358 5.6642,15.97022 12.7,20.03233 l 133.35,76.98953 c 7.0358,4.06211 12.7,1.66814 12.7,-5.36766 v -133.35 c 0,-7.0358 -5.6642,-15.97022 -12.7,-20.03233 z m 7.1437,23.968158 92.6042,53.46497 c 14.6579,8.46273 26.4583,27.0761 26.4583,41.73402 v 66.14583 c 0,14.65791 -11.8004,19.64537 -26.4583,11.18264 l -92.6042,-53.46496 z"
         id="path5171"
         inkscape:connector-curvature="0" />
      <g
         id="g5177"
         transform="matrix(0.99999994,-0.57768542,0.99999998,0.57768542,713.15408,590.95557)">
        <circle
           r="47.625"
           style="opacity:0.42000002;fill:#0d0b0d;fill-opacity:1;stroke-width:0.63539553"
           id="circle5173"
           cx="721.25415"
           cy="-145.3833" />
        <path
           transform="scale(0.26458333)"
           id="path5175"
           d="m 2905.7109,-557.63281 -255.4453,68.44531 a 135,135 0 0 0 120.7344,74.70703 135,135 0 0 0 135,-135 135,135 0 0 0 -0.2891,-8.15234 z"
           style="opacity:0.42000002;fill:#0d0b0d;fill-opacity:1;stroke-width:1.80112112"
           inkscape:connector-curvature="0" />
      </g>
      <ellipse
         ry="23.8125"
         rx="27.496307"
         transform="matrix(0.8660254,0.5,0,1,0,0)"
         style="opacity:0.42000002;fill:#0d0b0d;fill-opacity:1;stroke-width:0.34138846"
         id="ellipse5179"
         cx="1362.4131"
         cy="-512.5799" />
      <ellipse
         ry="23.8125"
         rx="27.496307"
         transform="matrix(0.8660254,0.5,0,1,0,0)"
         cy="-512.5799"
         cx="1431.1538"
         id="ellipse5181"
         style="opacity:0.42000002;fill:#0d0b0d;fill-opacity:1;stroke-width:0.34138846" />
      <ellipse
         ry="23.8125"
         rx="27.496307"
         transform="matrix(0.8660254,0.5,0,1,0,0)"
         style="opacity:0.42000002;fill:#0d0b0d;fill-opacity:1;stroke-width:0.34138846"
         id="ellipse5183"
         cx="1362.4131"
         cy="-453.04865" />
      <ellipse
         ry="23.8125"
         rx="27.496307"
         transform="matrix(0.8660254,0.5,0,1,0,0)"
         cy="-453.04865"
         cx="1431.1538"
         id="ellipse5185"
         style="opacity:0.42000002;fill:#0d0b0d;fill-opacity:1;stroke-width:0.34138846" />
      <path
         style="opacity:1;fill:#0d0b0d;fill-opacity:1;stroke-width:0.26458332"
         d="m 1301.725,174.69724 c -7.0358,4.06213 -12.7,12.99655 -12.7,20.03235 v 133.35 c 0,7.0358 5.6642,9.42978 12.7,5.36765 l 133.35,-76.98966 c 7.0358,-4.06213 12.7,-12.99655 12.7,-20.03235 v -133.35 c 0,-7.035796 -5.6642,-9.429769 -12.7,-5.367648 z m 7.1438,15.71928 92.6041,-53.46501 c 14.6579,-8.46275 26.4584,-3.47535 26.4584,11.18258 v 66.14583 c 0,14.6579 -11.8005,33.27134 -26.4584,41.73409 l -92.6041,53.46501 z m 119.0609,-35.66641 c 0,14.6579 -11.8004,33.27129 -26.4583,41.73404 14.6579,-8.46277 26.4583,-3.4753 26.4583,11.18262 v -26.45833 z"
         id="path5187"
         inkscape:connector-curvature="0" />
      <ellipse
         ry="23.8125"
         rx="27.496307"
         transform="matrix(0.8660254,-0.5,0,1,0,0)"
         style="opacity:0.42000002;fill:#0d0b0d;fill-opacity:1;stroke-width:0.34138846"
         id="ellipse5189"
         cx="1614.4626"
         cy="975.85791" />
      <ellipse
         ry="23.8125"
         rx="27.496307"
         transform="matrix(0.8660254,-0.5,0,1,0,0)"
         cy="1035.3892"
         cx="1545.7218"
         id="ellipse5191"
         style="opacity:0.42000002;fill:#0d0b0d;fill-opacity:1;stroke-width:0.34138846" />
      <path
         style="fill:#0d0b0d;fill-opacity:1;stroke-width:0.28439578"
         d="m 1142.975,82.975187 c -7.0358,4.064485 -7.0358,10.608736 0,14.673215 l 133.35,77.034348 c 7.0358,4.06448 18.3642,4.06448 25.4,0 l 133.3498,-77.03443 c 7.0358,-4.064485 7.0358,-10.608737 0,-14.673216 l -133.35,-77.0343548 c -7.0358,-4.064479 -18.3642,-4.0644733 -25.4,1.16e-5 z m 26.9874,7.336628 92.6041,-53.496149 c 14.6579,-8.46766 38.2587,-8.46766 52.9166,6e-6 l 66.1458,38.211485 c 14.658,8.467661 14.658,22.101518 10e-5,30.569183 l -92.6041,53.49615 z"
         id="path5193"
         inkscape:connector-curvature="0" />
    </g>
    <text
       xml:space="preserve"
       style="font-style:normal;font-weight:normal;font-size:10.58333302px;line-height:1.25;font-family:sans-serif;letter-spacing:0px;word-spacing:0px;fill:#000000;fill-opacity:1;stroke:none;stroke-width:0.26458332"
       x="659.52203"
       y="-600.89874"
       id="text5199"><tspan
         sodipodi:role="line"
         id="tspan5197"
         x="659.52203"
         y="-600.89874"
         style="stroke-width:0.26458332">1200 x 1200</tspan></text>
    <text
       xml:space="preserve"
       style="font-style:normal;font-weight:normal;font-size:10.58333302px;line-height:1.25;font-family:sans-serif;letter-spacing:0px;word-spacing:0px;fill:#000000;fill-opacity:1;stroke:none;stroke-width:0.26458332"
       x="982.81122"
       y="-578.67377"
       id="text5207"><tspan
         sodipodi:role="line"
         id="tspan5205"
         x="982.81122"
         y="-578.67377"
         style="stroke-width:0.26458332">1024 x 1024</tspan></text>
    <g
       id="g5243"
       transform="matrix(0.42666667,0,0,0.40607886,718.78888,-496.17205)"
       inkscape:export-xdpi="96"
       inkscape:export-ydpi="96">
      <path
         inkscape:connector-curvature="0"
         style="opacity:1;fill:#0d0b0d;fill-opacity:1;stroke-width:0.18244305"
         d="m 1276.3252,174.68288 v 0.0145 c 7.0324,4.06014 12.6945,12.98781 12.7,20.02203 0.01,-7.03422 5.6677,-15.96187 12.7,-20.02203 v -0.0145 c -7.0358,4.06447 -18.3642,4.06447 -25.4,0 z"
         id="path5209" />
      <path
         inkscape:connector-curvature="0"
         style="opacity:1;fill:#0d0b0d;fill-opacity:1;stroke-width:0.23230262"
         d="m 1289.0252,328.0797 c 0,6.28632 -4.5231,8.86238 -10.5048,6.44353 6.2433,2.61366 14.6937,2.62131 20.9506,0.0238 -5.9523,2.3781 -10.4458,-0.20169 -10.4458,-6.46732 z"
         id="path5211" />
      <path
         inkscape:connector-curvature="0"
         style="opacity:1;fill:#0d0b0d;fill-opacity:1;stroke-width:0.26458332"
         d="m 1435.7366,83.378888 c 6.3586,4.078833 6.1452,10.323222 -0.6407,14.256494 v 0.06098 c 7.0043,-4.032869 12.6428,-1.663459 12.6777,5.314918 v 0 c 0,-6.813658 -5.3129,-15.407177 -12.0386,-19.63239 z"
         id="path5213" />
      <path
         inkscape:connector-curvature="0"
         style="opacity:1;fill:#0d0b0d;fill-opacity:1;stroke-width:0.26458332"
         d="m 1140.9257,84.391748 c -6.0541,4.470069 -10.6505,12.346175 -10.6505,18.683612 0,-7.035805 5.6642,-9.429744 12.7,-5.367631 v -0.05943 c -6.2668,-3.62027 -6.9465,-9.206288 -2.0495,-13.256553 z"
         id="path5215" />
      <path
         style="fill:#0d0b0d;fill-opacity:1;stroke-width:0.28439578"
         d="m 1142.975,82.975187 c -7.0358,4.064485 -7.0358,10.608736 0,14.673215 l 133.35,77.034348 c 7.0358,4.06448 18.3642,4.06448 25.4,0 l 133.3498,-77.03443 c 7.0358,-4.064485 7.0358,-10.608737 0,-14.673216 l -133.35,-77.0343548 c -7.0358,-4.064479 -18.3642,-4.0644733 -25.4,1.16e-5 z m 26.9874,7.336628 92.6041,-53.496149 c 14.6579,-8.46766 38.2587,-8.46766 52.9166,6e-6 l 66.1458,38.211485 c 14.658,8.467661 14.658,22.101518 10e-5,30.569183 l -92.6041,53.49615 z"
         id="path5217"
         inkscape:connector-curvature="0" />
      <path
         inkscape:connector-curvature="0"
         id="path5219"
         d="m 1142.975,97.707652 c -7.0358,-4.062114 -12.7,-1.668137 -12.7,5.367668 v 133.34999 c 0,7.0358 5.6642,15.97022 12.7,20.03233 l 133.35,76.98953 c 7.0358,4.06211 12.7,1.66814 12.7,-5.36766 v -133.35 c 0,-7.0358 -5.6642,-15.97022 -12.7,-20.03233 z m 7.1437,23.968158 92.6042,53.46497 c 14.6579,8.46273 26.4583,27.0761 26.4583,41.73402 v 66.14583 c 0,14.65791 -11.8004,19.64537 -26.4583,11.18264 l -92.6042,-53.46496 z"
         style="fill:#0d0b0d;fill-opacity:1;stroke-width:0.26458332" />
      <g
         transform="matrix(0.99999994,-0.57768542,0.99999998,0.57768542,713.15408,590.95557)"
         id="g5225">
        <circle
           cy="-145.3833"
           cx="721.25415"
           id="circle5221"
           style="opacity:0.42000002;fill:#0d0b0d;fill-opacity:1;stroke-width:0.63539553"
           r="47.625" />
        <path
           inkscape:connector-curvature="0"
           style="opacity:0.42000002;fill:#0d0b0d;fill-opacity:1;stroke-width:1.80112112"
           d="m 2905.7109,-557.63281 -255.4453,68.44531 a 135,135 0 0 0 120.7344,74.70703 135,135 0 0 0 135,-135 135,135 0 0 0 -0.2891,-8.15234 z"
           id="path5223"
           transform="scale(0.26458333)" />
      </g>
      <ellipse
         cy="-512.5799"
         cx="1362.4131"
         id="ellipse5227"
         style="opacity:0.42000002;fill:#0d0b0d;fill-opacity:1;stroke-width:0.34138846"
         transform="matrix(0.8660254,0.5,0,1,0,0)"
         rx="27.496307"
         ry="23.8125" />
      <ellipse
         style="opacity:0.42000002;fill:#0d0b0d;fill-opacity:1;stroke-width:0.34138846"
         id="ellipse5229"
         cx="1431.1538"
         cy="-512.5799"
         transform="matrix(0.8660254,0.5,0,1,0,0)"
         rx="27.496307"
         ry="23.8125" />
      <ellipse
         cy="-453.04865"
         cx="1362.4131"
         id="ellipse5231"
         style="opacity:0.42000002;fill:#0d0b0d;fill-opacity:1;stroke-width:0.34138846"
         transform="matrix(0.8660254,0.5,0,1,0,0)"
         rx="27.496307"
         ry="23.8125" />
      <ellipse
         style="opacity:0.42000002;fill:#0d0b0d;fill-opacity:1;stroke-width:0.34138846"
         id="ellipse5233"
         cx="1431.1538"
         cy="-453.04865"
         transform="matrix(0.8660254,0.5,0,1,0,0)"
         rx="27.496307"
         ry="23.8125" />
      <path
         inkscape:connector-curvature="0"
         id="path5235"
         d="m 1301.725,174.69724 c -7.0358,4.06213 -12.7,12.99655 -12.7,20.03235 v 133.35 c 0,7.0358 5.6642,9.42978 12.7,5.36765 l 133.35,-76.98966 c 7.0358,-4.06213 12.7,-12.99655 12.7,-20.03235 v -133.35 c 0,-7.035796 -5.6642,-9.429769 -12.7,-5.367648 z m 7.1438,15.71928 92.6041,-53.46501 c 14.6579,-8.46275 26.4584,-3.47535 26.4584,11.18258 v 66.14583 c 0,14.6579 -11.8005,33.27134 -26.4584,41.73409 l -92.6041,53.46501 z m 119.0609,-35.66641 c 0,14.6579 -11.8004,33.27129 -26.4583,41.73404 14.6579,-8.46277 26.4583,-3.4753 26.4583,11.18262 v -26.45833 z"
         style="opacity:1;fill:#0d0b0d;fill-opacity:1;stroke-width:0.26458332" />
      <ellipse
         cy="975.85791"
         cx="1614.4626"
         id="ellipse5237"
         style="opacity:0.42000002;fill:#0d0b0d;fill-opacity:1;stroke-width:0.34138846"
         transform="matrix(0.8660254,-0.5,0,1,0,0)"
         rx="27.496307"
         ry="23.8125" />
      <ellipse
         style="opacity:0.42000002;fill:#0d0b0d;fill-opacity:1;stroke-width:0.34138846"
         id="ellipse5239"
         cx="1545.7218"
         cy="1035.3892"
         transform="matrix(0.8660254,-0.5,0,1,0,0)"
         rx="27.496307"
         ry="23.8125" />
      <path
         inkscape:connector-curvature="0"
         id="path5241"
         d="m 1142.975,82.975187 c -7.0358,4.064485 -7.0358,10.608736 0,14.673215 l 133.35,77.034348 c 7.0358,4.06448 18.3642,4.06448 25.4,0 l 133.3498,-77.03443 c 7.0358,-4.064485 7.0358,-10.608737 0,-14.673216 l -133.35,-77.0343548 c -7.0358,-4.064479 -18.3642,-4.0644733 -25.4,1.16e-5 z m 26.9874,7.336628 92.6041,-53.496149 c 14.6579,-8.46766 38.2587,-8.46766 52.9166,6e-6 l 66.1458,38.211485 c 14.658,8.467661 14.658,22.101518 10e-5,30.569183 l -92.6041,53.49615 z"
         style="fill:#0d0b0d;fill-opacity:1;stroke-width:0.28439578" />
    </g>
    <text
       xml:space="preserve"
       style="font-style:normal;font-weight:normal;font-size:10.58333302px;line-height:1.25;font-family:sans-serif;letter-spacing:0px;word-spacing:0px;fill:#000000;fill-opacity:1;stroke:none;stroke-width:0.26458332"
       x="1242.4833"
       y="-509.88208"
       id="text5247"><tspan
         sodipodi:role="line"
         id="tspan5245"
         x="1242.4833"
         y="-509.88208"
         style="stroke-width:0.26458332">512 x 512</tspan></text>
    <g
       inkscape:export-ydpi="96"
       inkscape:export-xdpi="96"
       transform="matrix(0.21333333,0,0,0.20303943,1122.8975,-461.71811)"
       id="g5283">
      <path
         id="path5249"
         d="m 1276.3252,174.68288 v 0.0145 c 7.0324,4.06014 12.6945,12.98781 12.7,20.02203 0.01,-7.03422 5.6677,-15.96187 12.7,-20.02203 v -0.0145 c -7.0358,4.06447 -18.3642,4.06447 -25.4,0 z"
         style="opacity:1;fill:#0d0b0d;fill-opacity:1;stroke-width:0.18244305"
         inkscape:connector-curvature="0" />
      <path
         id="path5251"
         d="m 1289.0252,328.0797 c 0,6.28632 -4.5231,8.86238 -10.5048,6.44353 6.2433,2.61366 14.6937,2.62131 20.9506,0.0238 -5.9523,2.3781 -10.4458,-0.20169 -10.4458,-6.46732 z"
         style="opacity:1;fill:#0d0b0d;fill-opacity:1;stroke-width:0.23230262"
         inkscape:connector-curvature="0" />
      <path
         id="path5253"
         d="m 1435.7366,83.378888 c 6.3586,4.078833 6.1452,10.323222 -0.6407,14.256494 v 0.06098 c 7.0043,-4.032869 12.6428,-1.663459 12.6777,5.314918 v 0 c 0,-6.813658 -5.3129,-15.407177 -12.0386,-19.63239 z"
         style="opacity:1;fill:#0d0b0d;fill-opacity:1;stroke-width:0.26458332"
         inkscape:connector-curvature="0" />
      <path
         id="path5255"
         d="m 1140.9257,84.391748 c -6.0541,4.470069 -10.6505,12.346175 -10.6505,18.683612 0,-7.035805 5.6642,-9.429744 12.7,-5.367631 v -0.05943 c -6.2668,-3.62027 -6.9465,-9.206288 -2.0495,-13.256553 z"
         style="opacity:1;fill:#0d0b0d;fill-opacity:1;stroke-width:0.26458332"
         inkscape:connector-curvature="0" />
      <path
         inkscape:connector-curvature="0"
         id="path5257"
         d="m 1142.975,82.975187 c -7.0358,4.064485 -7.0358,10.608736 0,14.673215 l 133.35,77.034348 c 7.0358,4.06448 18.3642,4.06448 25.4,0 l 133.3498,-77.03443 c 7.0358,-4.064485 7.0358,-10.608737 0,-14.673216 l -133.35,-77.0343548 c -7.0358,-4.064479 -18.3642,-4.0644733 -25.4,1.16e-5 z m 26.9874,7.336628 92.6041,-53.496149 c 14.6579,-8.46766 38.2587,-8.46766 52.9166,6e-6 l 66.1458,38.211485 c 14.658,8.467661 14.658,22.101518 10e-5,30.569183 l -92.6041,53.49615 z"
         style="fill:#0d0b0d;fill-opacity:1;stroke-width:0.28439578" />
      <path
         style="fill:#0d0b0d;fill-opacity:1;stroke-width:0.26458332"
         d="m 1142.975,97.707652 c -7.0358,-4.062114 -12.7,-1.668137 -12.7,5.367668 v 133.34999 c 0,7.0358 5.6642,15.97022 12.7,20.03233 l 133.35,76.98953 c 7.0358,4.06211 12.7,1.66814 12.7,-5.36766 v -133.35 c 0,-7.0358 -5.6642,-15.97022 -12.7,-20.03233 z m 7.1437,23.968158 92.6042,53.46497 c 14.6579,8.46273 26.4583,27.0761 26.4583,41.73402 v 66.14583 c 0,14.65791 -11.8004,19.64537 -26.4583,11.18264 l -92.6042,-53.46496 z"
         id="path5259"
         inkscape:connector-curvature="0" />
      <g
         id="g5265"
         transform="matrix(0.99999994,-0.57768542,0.99999998,0.57768542,713.15408,590.95557)">
        <circle
           r="47.625"
           style="opacity:0.42000002;fill:#0d0b0d;fill-opacity:1;stroke-width:0.63539553"
           id="circle5261"
           cx="721.25415"
           cy="-145.3833" />
        <path
           transform="scale(0.26458333)"
           id="path5263"
           d="m 2905.7109,-557.63281 -255.4453,68.44531 a 135,135 0 0 0 120.7344,74.70703 135,135 0 0 0 135,-135 135,135 0 0 0 -0.2891,-8.15234 z"
           style="opacity:0.42000002;fill:#0d0b0d;fill-opacity:1;stroke-width:1.80112112"
           inkscape:connector-curvature="0" />
      </g>
      <ellipse
         ry="23.8125"
         rx="27.496307"
         transform="matrix(0.8660254,0.5,0,1,0,0)"
         style="opacity:0.42000002;fill:#0d0b0d;fill-opacity:1;stroke-width:0.34138846"
         id="ellipse5267"
         cx="1362.4131"
         cy="-512.5799" />
      <ellipse
         ry="23.8125"
         rx="27.496307"
         transform="matrix(0.8660254,0.5,0,1,0,0)"
         cy="-512.5799"
         cx="1431.1538"
         id="ellipse5269"
         style="opacity:0.42000002;fill:#0d0b0d;fill-opacity:1;stroke-width:0.34138846" />
      <ellipse
         ry="23.8125"
         rx="27.496307"
         transform="matrix(0.8660254,0.5,0,1,0,0)"
         style="opacity:0.42000002;fill:#0d0b0d;fill-opacity:1;stroke-width:0.34138846"
         id="ellipse5271"
         cx="1362.4131"
         cy="-453.04865" />
      <ellipse
         ry="23.8125"
         rx="27.496307"
         transform="matrix(0.8660254,0.5,0,1,0,0)"
         cy="-453.04865"
         cx="1431.1538"
         id="ellipse5273"
         style="opacity:0.42000002;fill:#0d0b0d;fill-opacity:1;stroke-width:0.34138846" />
      <path
         style="opacity:1;fill:#0d0b0d;fill-opacity:1;stroke-width:0.26458332"
         d="m 1301.725,174.69724 c -7.0358,4.06213 -12.7,12.99655 -12.7,20.03235 v 133.35 c 0,7.0358 5.6642,9.42978 12.7,5.36765 l 133.35,-76.98966 c 7.0358,-4.06213 12.7,-12.99655 12.7,-20.03235 v -133.35 c 0,-7.035796 -5.6642,-9.429769 -12.7,-5.367648 z m 7.1438,15.71928 92.6041,-53.46501 c 14.6579,-8.46275 26.4584,-3.47535 26.4584,11.18258 v 66.14583 c 0,14.6579 -11.8005,33.27134 -26.4584,41.73409 l -92.6041,53.46501 z m 119.0609,-35.66641 c 0,14.6579 -11.8004,33.27129 -26.4583,41.73404 14.6579,-8.46277 26.4583,-3.4753 26.4583,11.18262 v -26.45833 z"
         id="path5275"
         inkscape:connector-curvature="0" />
      <ellipse
         ry="23.8125"
         rx="27.496307"
         transform="matrix(0.8660254,-0.5,0,1,0,0)"
         style="opacity:0.42000002;fill:#0d0b0d;fill-opacity:1;stroke-width:0.34138846"
         id="ellipse5277"
         cx="1614.4626"
         cy="975.85791" />
      <ellipse
         ry="23.8125"
         rx="27.496307"
         transform="matrix(0.8660254,-0.5,0,1,0,0)"
         cy="1035.3892"
         cx="1545.7218"
         id="ellipse5279"
         style="opacity:0.42000002;fill:#0d0b0d;fill-opacity:1;stroke-width:0.34138846" />
      <path
         style="fill:#0d0b0d;fill-opacity:1;stroke-width:0.28439578"
         d="m 1142.975,82.975187 c -7.0358,4.064485 -7.0358,10.608736 0,14.673215 l 133.35,77.034348 c 7.0358,4.06448 18.3642,4.06448 25.4,0 l 133.3498,-77.03443 c 7.0358,-4.064485 7.0358,-10.608737 0,-14.673216 l -133.35,-77.0343548 c -7.0358,-4.064479 -18.3642,-4.0644733 -25.4,1.16e-5 z m 26.9874,7.336628 92.6041,-53.496149 c 14.6579,-8.46766 38.2587,-8.46766 52.9166,6e-6 l 66.1458,38.211485 c 14.658,8.467661 14.658,22.101518 10e-5,30.569183 l -92.6041,53.49615 z"
         id="path5281"
         inkscape:connector-curvature="0" />
    </g>
    <text
       xml:space="preserve"
       style="font-style:normal;font-weight:normal;font-size:10.58333302px;line-height:1.25;font-family:sans-serif;letter-spacing:0px;word-spacing:0px;fill:#000000;fill-opacity:1;stroke:none;stroke-width:0.26458332"
       x="1371.6001"
       y="-474.95706"
       id="text5287"><tspan
         sodipodi:role="line"
         x="1371.6001"
         y="-474.95706"
         style="stroke-width:0.26458332"
         id="tspan5289">256 x 256</tspan></text>
    <g
       id="g5327"
       transform="matrix(0.10666667,0,0,0.10151972,1340.8269,-444.49114)"
       inkscape:export-xdpi="96"
       inkscape:export-ydpi="96">
      <path
         inkscape:connector-curvature="0"
         style="opacity:1;fill:#0d0b0d;fill-opacity:1;stroke-width:0.18244305"
         d="m 1276.3252,174.68288 v 0.0145 c 7.0324,4.06014 12.6945,12.98781 12.7,20.02203 0.01,-7.03422 5.6677,-15.96187 12.7,-20.02203 v -0.0145 c -7.0358,4.06447 -18.3642,4.06447 -25.4,0 z"
         id="path5293" />
      <path
         inkscape:connector-curvature="0"
         style="opacity:1;fill:#0d0b0d;fill-opacity:1;stroke-width:0.23230262"
         d="m 1289.0252,328.0797 c 0,6.28632 -4.5231,8.86238 -10.5048,6.44353 6.2433,2.61366 14.6937,2.62131 20.9506,0.0238 -5.9523,2.3781 -10.4458,-0.20169 -10.4458,-6.46732 z"
         id="path5295" />
      <path
         inkscape:connector-curvature="0"
         style="opacity:1;fill:#0d0b0d;fill-opacity:1;stroke-width:0.26458332"
         d="m 1435.7366,83.378888 c 6.3586,4.078833 6.1452,10.323222 -0.6407,14.256494 v 0.06098 c 7.0043,-4.032869 12.6428,-1.663459 12.6777,5.314918 v 0 c 0,-6.813658 -5.3129,-15.407177 -12.0386,-19.63239 z"
         id="path5297" />
      <path
         inkscape:connector-curvature="0"
         style="opacity:1;fill:#0d0b0d;fill-opacity:1;stroke-width:0.26458332"
         d="m 1140.9257,84.391748 c -6.0541,4.470069 -10.6505,12.346175 -10.6505,18.683612 0,-7.035805 5.6642,-9.429744 12.7,-5.367631 v -0.05943 c -6.2668,-3.62027 -6.9465,-9.206288 -2.0495,-13.256553 z"
         id="path5299" />
      <path
         style="fill:#0d0b0d;fill-opacity:1;stroke-width:0.28439578"
         d="m 1142.975,82.975187 c -7.0358,4.064485 -7.0358,10.608736 0,14.673215 l 133.35,77.034348 c 7.0358,4.06448 18.3642,4.06448 25.4,0 l 133.3498,-77.03443 c 7.0358,-4.064485 7.0358,-10.608737 0,-14.673216 l -133.35,-77.0343548 c -7.0358,-4.064479 -18.3642,-4.0644733 -25.4,1.16e-5 z m 26.9874,7.336628 92.6041,-53.496149 c 14.6579,-8.46766 38.2587,-8.46766 52.9166,6e-6 l 66.1458,38.211485 c 14.658,8.467661 14.658,22.101518 10e-5,30.569183 l -92.6041,53.49615 z"
         id="path5301"
         inkscape:connector-curvature="0" />
      <path
         inkscape:connector-curvature="0"
         id="path5303"
         d="m 1142.975,97.707652 c -7.0358,-4.062114 -12.7,-1.668137 -12.7,5.367668 v 133.34999 c 0,7.0358 5.6642,15.97022 12.7,20.03233 l 133.35,76.98953 c 7.0358,4.06211 12.7,1.66814 12.7,-5.36766 v -133.35 c 0,-7.0358 -5.6642,-15.97022 -12.7,-20.03233 z m 7.1437,23.968158 92.6042,53.46497 c 14.6579,8.46273 26.4583,27.0761 26.4583,41.73402 v 66.14583 c 0,14.65791 -11.8004,19.64537 -26.4583,11.18264 l -92.6042,-53.46496 z"
         style="fill:#0d0b0d;fill-opacity:1;stroke-width:0.26458332" />
      <g
         transform="matrix(0.99999994,-0.57768542,0.99999998,0.57768542,713.15408,590.95557)"
         id="g5309">
        <circle
           cy="-145.3833"
           cx="721.25415"
           id="circle5305"
           style="opacity:0.42000002;fill:#0d0b0d;fill-opacity:1;stroke-width:0.63539553"
           r="47.625" />
        <path
           inkscape:connector-curvature="0"
           style="opacity:0.42000002;fill:#0d0b0d;fill-opacity:1;stroke-width:1.80112112"
           d="m 2905.7109,-557.63281 -255.4453,68.44531 a 135,135 0 0 0 120.7344,74.70703 135,135 0 0 0 135,-135 135,135 0 0 0 -0.2891,-8.15234 z"
           id="path5307"
           transform="scale(0.26458333)" />
      </g>
      <ellipse
         cy="-512.5799"
         cx="1362.4131"
         id="ellipse5311"
         style="opacity:0.42000002;fill:#0d0b0d;fill-opacity:1;stroke-width:0.34138846"
         transform="matrix(0.8660254,0.5,0,1,0,0)"
         rx="27.496307"
         ry="23.8125" />
      <ellipse
         style="opacity:0.42000002;fill:#0d0b0d;fill-opacity:1;stroke-width:0.34138846"
         id="ellipse5313"
         cx="1431.1538"
         cy="-512.5799"
         transform="matrix(0.8660254,0.5,0,1,0,0)"
         rx="27.496307"
         ry="23.8125" />
      <ellipse
         cy="-453.04865"
         cx="1362.4131"
         id="ellipse5315"
         style="opacity:0.42000002;fill:#0d0b0d;fill-opacity:1;stroke-width:0.34138846"
         transform="matrix(0.8660254,0.5,0,1,0,0)"
         rx="27.496307"
         ry="23.8125" />
      <ellipse
         style="opacity:0.42000002;fill:#0d0b0d;fill-opacity:1;stroke-width:0.34138846"
         id="ellipse5317"
         cx="1431.1538"
         cy="-453.04865"
         transform="matrix(0.8660254,0.5,0,1,0,0)"
         rx="27.496307"
         ry="23.8125" />
      <path
         inkscape:connector-curvature="0"
         id="path5319"
         d="m 1301.725,174.69724 c -7.0358,4.06213 -12.7,12.99655 -12.7,20.03235 v 133.35 c 0,7.0358 5.6642,9.42978 12.7,5.36765 l 133.35,-76.98966 c 7.0358,-4.06213 12.7,-12.99655 12.7,-20.03235 v -133.35 c 0,-7.035796 -5.6642,-9.429769 -12.7,-5.367648 z m 7.1438,15.71928 92.6041,-53.46501 c 14.6579,-8.46275 26.4584,-3.47535 26.4584,11.18258 v 66.14583 c 0,14.6579 -11.8005,33.27134 -26.4584,41.73409 l -92.6041,53.46501 z m 119.0609,-35.66641 c 0,14.6579 -11.8004,33.27129 -26.4583,41.73404 14.6579,-8.46277 26.4583,-3.4753 26.4583,11.18262 v -26.45833 z"
         style="opacity:1;fill:#0d0b0d;fill-opacity:1;stroke-width:0.26458332" />
      <ellipse
         cy="975.85791"
         cx="1614.4626"
         id="ellipse5321"
         style="opacity:0.42000002;fill:#0d0b0d;fill-opacity:1;stroke-width:0.34138846"
         transform="matrix(0.8660254,-0.5,0,1,0,0)"
         rx="27.496307"
         ry="23.8125" />
      <ellipse
         style="opacity:0.42000002;fill:#0d0b0d;fill-opacity:1;stroke-width:0.34138846"
         id="ellipse5323"
         cx="1545.7218"
         cy="1035.3892"
         transform="matrix(0.8660254,-0.5,0,1,0,0)"
         rx="27.496307"
         ry="23.8125" />
      <path
         inkscape:connector-curvature="0"
         id="path5325"
         d="m 1142.975,82.975187 c -7.0358,4.064485 -7.0358,10.608736 0,14.673215 l 133.35,77.034348 c 7.0358,4.06448 18.3642,4.06448 25.4,0 l 133.3498,-77.03443 c 7.0358,-4.064485 7.0358,-10.608737 0,-14.673216 l -133.35,-77.0343548 c -7.0358,-4.064479 -18.3642,-4.0644733 -25.4,1.16e-5 z m 26.9874,7.336628 92.6041,-53.496149 c 14.6579,-8.46766 38.2587,-8.46766 52.9166,6e-6 l 66.1458,38.211485 c 14.658,8.467661 14.658,22.101518 10e-5,30.569183 l -92.6041,53.49615 z"
         style="fill:#0d0b0d;fill-opacity:1;stroke-width:0.28439578" />
    </g>
    <text
       xml:space="preserve"
       style="font-style:normal;font-weight:normal;font-size:10.58333302px;line-height:1.25;font-family:sans-serif;letter-spacing:0px;word-spacing:0px;fill:#000000;fill-opacity:1;stroke:none;stroke-width:0.26458332"
       x="1452.0333"
       y="-456.96542"
       id="text5331"><tspan
         sodipodi:role="line"
         id="tspan5329"
         x="1452.0333"
         y="-456.96542"
         style="stroke-width:0.26458332">128 x 128</tspan></text>
    <g
       inkscape:export-ydpi="96"
       inkscape:export-xdpi="96"
       transform="matrix(0.05333333,0,0,0.05075986,1477.1688,-435.87766)"
       id="g5367">
      <path
         id="path5333"
         d="m 1276.3252,174.68288 v 0.0145 c 7.0324,4.06014 12.6945,12.98781 12.7,20.02203 0.01,-7.03422 5.6677,-15.96187 12.7,-20.02203 v -0.0145 c -7.0358,4.06447 -18.3642,4.06447 -25.4,0 z"
         style="opacity:1;fill:#0d0b0d;fill-opacity:1;stroke-width:0.18244305"
         inkscape:connector-curvature="0" />
      <path
         id="path5335"
         d="m 1289.0252,328.0797 c 0,6.28632 -4.5231,8.86238 -10.5048,6.44353 6.2433,2.61366 14.6937,2.62131 20.9506,0.0238 -5.9523,2.3781 -10.4458,-0.20169 -10.4458,-6.46732 z"
         style="opacity:1;fill:#0d0b0d;fill-opacity:1;stroke-width:0.23230262"
         inkscape:connector-curvature="0" />
      <path
         id="path5337"
         d="m 1435.7366,83.378888 c 6.3586,4.078833 6.1452,10.323222 -0.6407,14.256494 v 0.06098 c 7.0043,-4.032869 12.6428,-1.663459 12.6777,5.314918 v 0 c 0,-6.813658 -5.3129,-15.407177 -12.0386,-19.63239 z"
         style="opacity:1;fill:#0d0b0d;fill-opacity:1;stroke-width:0.26458332"
         inkscape:connector-curvature="0" />
      <path
         id="path5339"
         d="m 1140.9257,84.391748 c -6.0541,4.470069 -10.6505,12.346175 -10.6505,18.683612 0,-7.035805 5.6642,-9.429744 12.7,-5.367631 v -0.05943 c -6.2668,-3.62027 -6.9465,-9.206288 -2.0495,-13.256553 z"
         style="opacity:1;fill:#0d0b0d;fill-opacity:1;stroke-width:0.26458332"
         inkscape:connector-curvature="0" />
      <path
         inkscape:connector-curvature="0"
         id="path5341"
         d="m 1142.975,82.975187 c -7.0358,4.064485 -7.0358,10.608736 0,14.673215 l 133.35,77.034348 c 7.0358,4.06448 18.3642,4.06448 25.4,0 l 133.3498,-77.03443 c 7.0358,-4.064485 7.0358,-10.608737 0,-14.673216 l -133.35,-77.0343548 c -7.0358,-4.064479 -18.3642,-4.0644733 -25.4,1.16e-5 z m 26.9874,7.336628 92.6041,-53.496149 c 14.6579,-8.46766 38.2587,-8.46766 52.9166,6e-6 l 66.1458,38.211485 c 14.658,8.467661 14.658,22.101518 10e-5,30.569183 l -92.6041,53.49615 z"
         style="fill:#0d0b0d;fill-opacity:1;stroke-width:0.28439578" />
      <path
         style="fill:#0d0b0d;fill-opacity:1;stroke-width:0.26458332"
         d="m 1142.975,97.707652 c -7.0358,-4.062114 -12.7,-1.668137 -12.7,5.367668 v 133.34999 c 0,7.0358 5.6642,15.97022 12.7,20.03233 l 133.35,76.98953 c 7.0358,4.06211 12.7,1.66814 12.7,-5.36766 v -133.35 c 0,-7.0358 -5.6642,-15.97022 -12.7,-20.03233 z m 7.1437,23.968158 92.6042,53.46497 c 14.6579,8.46273 26.4583,27.0761 26.4583,41.73402 v 66.14583 c 0,14.65791 -11.8004,19.64537 -26.4583,11.18264 l -92.6042,-53.46496 z"
         id="path5343"
         inkscape:connector-curvature="0" />
      <g
         id="g5349"
         transform="matrix(0.99999994,-0.57768542,0.99999998,0.57768542,713.15408,590.95557)">
        <circle
           r="47.625"
           style="opacity:0.42000002;fill:#0d0b0d;fill-opacity:1;stroke-width:0.63539553"
           id="circle5345"
           cx="721.25415"
           cy="-145.3833" />
        <path
           transform="scale(0.26458333)"
           id="path5347"
           d="m 2905.7109,-557.63281 -255.4453,68.44531 a 135,135 0 0 0 120.7344,74.70703 135,135 0 0 0 135,-135 135,135 0 0 0 -0.2891,-8.15234 z"
           style="opacity:0.42000002;fill:#0d0b0d;fill-opacity:1;stroke-width:1.80112112"
           inkscape:connector-curvature="0" />
      </g>
      <ellipse
         ry="23.8125"
         rx="27.496307"
         transform="matrix(0.8660254,0.5,0,1,0,0)"
         style="opacity:0.42000002;fill:#0d0b0d;fill-opacity:1;stroke-width:0.34138846"
         id="ellipse5351"
         cx="1362.4131"
         cy="-512.5799" />
      <ellipse
         ry="23.8125"
         rx="27.496307"
         transform="matrix(0.8660254,0.5,0,1,0,0)"
         cy="-512.5799"
         cx="1431.1538"
         id="ellipse5353"
         style="opacity:0.42000002;fill:#0d0b0d;fill-opacity:1;stroke-width:0.34138846" />
      <ellipse
         ry="23.8125"
         rx="27.496307"
         transform="matrix(0.8660254,0.5,0,1,0,0)"
         style="opacity:0.42000002;fill:#0d0b0d;fill-opacity:1;stroke-width:0.34138846"
         id="ellipse5355"
         cx="1362.4131"
         cy="-453.04865" />
      <ellipse
         ry="23.8125"
         rx="27.496307"
         transform="matrix(0.8660254,0.5,0,1,0,0)"
         cy="-453.04865"
         cx="1431.1538"
         id="ellipse5357"
         style="opacity:0.42000002;fill:#0d0b0d;fill-opacity:1;stroke-width:0.34138846" />
      <path
         style="opacity:1;fill:#0d0b0d;fill-opacity:1;stroke-width:0.26458332"
         d="m 1301.725,174.69724 c -7.0358,4.06213 -12.7,12.99655 -12.7,20.03235 v 133.35 c 0,7.0358 5.6642,9.42978 12.7,5.36765 l 133.35,-76.98966 c 7.0358,-4.06213 12.7,-12.99655 12.7,-20.03235 v -133.35 c 0,-7.035796 -5.6642,-9.429769 -12.7,-5.367648 z m 7.1438,15.71928 92.6041,-53.46501 c 14.6579,-8.46275 26.4584,-3.47535 26.4584,11.18258 v 66.14583 c 0,14.6579 -11.8005,33.27134 -26.4584,41.73409 l -92.6041,53.46501 z m 119.0609,-35.66641 c 0,14.6579 -11.8004,33.27129 -26.4583,41.73404 14.6579,-8.46277 26.4583,-3.4753 26.4583,11.18262 v -26.45833 z"
         id="path5359"
         inkscape:connector-curvature="0" />
      <ellipse
         ry="23.8125"
         rx="27.496307"
         transform="matrix(0.8660254,-0.5,0,1,0,0)"
         style="opacity:0.42000002;fill:#0d0b0d;fill-opacity:1;stroke-width:0.34138846"
         id="ellipse5361"
         cx="1614.4626"
         cy="975.85791" />
      <ellipse
         ry="23.8125"
         rx="27.496307"
         transform="matrix(0.8660254,-0.5,0,1,0,0)"
         cy="1035.3892"
         cx="1545.7218"
         id="ellipse5363"
         style="opacity:0.42000002;fill:#0d0b0d;fill-opacity:1;stroke-width:0.34138846" />
      <path
         style="fill:#0d0b0d;fill-opacity:1;stroke-width:0.28439578"
         d="m 1142.975,82.975187 c -7.0358,4.064485 -7.0358,10.608736 0,14.673215 l 133.35,77.034348 c 7.0358,4.06448 18.3642,4.06448 25.4,0 l 133.3498,-77.03443 c 7.0358,-4.064485 7.0358,-10.608737 0,-14.673216 l -133.35,-77.0343548 c -7.0358,-4.064479 -18.3642,-4.0644733 -25.4,1.16e-5 z m 26.9874,7.336628 92.6041,-53.496149 c 14.6579,-8.46766 38.2587,-8.46766 52.9166,6e-6 l 66.1458,38.211485 c 14.658,8.467661 14.658,22.101518 10e-5,30.569183 l -92.6041,53.49615 z"
         id="path5365"
         inkscape:connector-curvature="0" />
    </g>
    <text
       xml:space="preserve"
       style="font-style:normal;font-weight:normal;font-size:10.58333302px;line-height:1.25;font-family:sans-serif;letter-spacing:0px;word-spacing:0px;fill:#000000;fill-opacity:1;stroke:none;stroke-width:0.26458332"
       x="1528.386"
       y="-448.49875"
       id="text5371"><tspan
         sodipodi:role="line"
         id="tspan5369"
         x="1528.386"
         y="-448.49875"
         style="stroke-width:0.26458332">64 x 64</tspan></text>
    <g
       id="g5407"
       transform="matrix(0.02666667,0,0,0.02537993,1576.5323,-431.57092)"
       inkscape:export-xdpi="96"
       inkscape:export-ydpi="96">
      <path
         inkscape:connector-curvature="0"
         style="opacity:1;fill:#0d0b0d;fill-opacity:1;stroke-width:0.18244305"
         d="m 1276.3252,174.68288 v 0.0145 c 7.0324,4.06014 12.6945,12.98781 12.7,20.02203 0.01,-7.03422 5.6677,-15.96187 12.7,-20.02203 v -0.0145 c -7.0358,4.06447 -18.3642,4.06447 -25.4,0 z"
         id="path5373" />
      <path
         inkscape:connector-curvature="0"
         style="opacity:1;fill:#0d0b0d;fill-opacity:1;stroke-width:0.23230262"
         d="m 1289.0252,328.0797 c 0,6.28632 -4.5231,8.86238 -10.5048,6.44353 6.2433,2.61366 14.6937,2.62131 20.9506,0.0238 -5.9523,2.3781 -10.4458,-0.20169 -10.4458,-6.46732 z"
         id="path5375" />
      <path
         inkscape:connector-curvature="0"
         style="opacity:1;fill:#0d0b0d;fill-opacity:1;stroke-width:0.26458332"
         d="m 1435.7366,83.378888 c 6.3586,4.078833 6.1452,10.323222 -0.6407,14.256494 v 0.06098 c 7.0043,-4.032869 12.6428,-1.663459 12.6777,5.314918 v 0 c 0,-6.813658 -5.3129,-15.407177 -12.0386,-19.63239 z"
         id="path5377" />
      <path
         inkscape:connector-curvature="0"
         style="opacity:1;fill:#0d0b0d;fill-opacity:1;stroke-width:0.26458332"
         d="m 1140.9257,84.391748 c -6.0541,4.470069 -10.6505,12.346175 -10.6505,18.683612 0,-7.035805 5.6642,-9.429744 12.7,-5.367631 v -0.05943 c -6.2668,-3.62027 -6.9465,-9.206288 -2.0495,-13.256553 z"
         id="path5379" />
      <path
         style="fill:#0d0b0d;fill-opacity:1;stroke-width:0.28439578"
         d="m 1142.975,82.975187 c -7.0358,4.064485 -7.0358,10.608736 0,14.673215 l 133.35,77.034348 c 7.0358,4.06448 18.3642,4.06448 25.4,0 l 133.3498,-77.03443 c 7.0358,-4.064485 7.0358,-10.608737 0,-14.673216 l -133.35,-77.0343548 c -7.0358,-4.064479 -18.3642,-4.0644733 -25.4,1.16e-5 z m 26.9874,7.336628 92.6041,-53.496149 c 14.6579,-8.46766 38.2587,-8.46766 52.9166,6e-6 l 66.1458,38.211485 c 14.658,8.467661 14.658,22.101518 10e-5,30.569183 l -92.6041,53.49615 z"
         id="path5381"
         inkscape:connector-curvature="0" />
      <path
         inkscape:connector-curvature="0"
         id="path5383"
         d="m 1142.975,97.707652 c -7.0358,-4.062114 -12.7,-1.668137 -12.7,5.367668 v 133.34999 c 0,7.0358 5.6642,15.97022 12.7,20.03233 l 133.35,76.98953 c 7.0358,4.06211 12.7,1.66814 12.7,-5.36766 v -133.35 c 0,-7.0358 -5.6642,-15.97022 -12.7,-20.03233 z m 7.1437,23.968158 92.6042,53.46497 c 14.6579,8.46273 26.4583,27.0761 26.4583,41.73402 v 66.14583 c 0,14.65791 -11.8004,19.64537 -26.4583,11.18264 l -92.6042,-53.46496 z"
         style="fill:#0d0b0d;fill-opacity:1;stroke-width:0.26458332" />
      <g
         transform="matrix(0.99999994,-0.57768542,0.99999998,0.57768542,713.15408,590.95557)"
         id="g5389">
        <circle
           cy="-145.3833"
           cx="721.25415"
           id="circle5385"
           style="opacity:0.42000002;fill:#0d0b0d;fill-opacity:1;stroke-width:0.63539553"
           r="47.625" />
        <path
           inkscape:connector-curvature="0"
           style="opacity:0.42000002;fill:#0d0b0d;fill-opacity:1;stroke-width:1.80112112"
           d="m 2905.7109,-557.63281 -255.4453,68.44531 a 135,135 0 0 0 120.7344,74.70703 135,135 0 0 0 135,-135 135,135 0 0 0 -0.2891,-8.15234 z"
           id="path5387"
           transform="scale(0.26458333)" />
      </g>
      <ellipse
         cy="-512.5799"
         cx="1362.4131"
         id="ellipse5391"
         style="opacity:0.42000002;fill:#0d0b0d;fill-opacity:1;stroke-width:0.34138846"
         transform="matrix(0.8660254,0.5,0,1,0,0)"
         rx="27.496307"
         ry="23.8125" />
      <ellipse
         style="opacity:0.42000002;fill:#0d0b0d;fill-opacity:1;stroke-width:0.34138846"
         id="ellipse5393"
         cx="1431.1538"
         cy="-512.5799"
         transform="matrix(0.8660254,0.5,0,1,0,0)"
         rx="27.496307"
         ry="23.8125" />
      <ellipse
         cy="-453.04865"
         cx="1362.4131"
         id="ellipse5395"
         style="opacity:0.42000002;fill:#0d0b0d;fill-opacity:1;stroke-width:0.34138846"
         transform="matrix(0.8660254,0.5,0,1,0,0)"
         rx="27.496307"
         ry="23.8125" />
      <ellipse
         style="opacity:0.42000002;fill:#0d0b0d;fill-opacity:1;stroke-width:0.34138846"
         id="ellipse5397"
         cx="1431.1538"
         cy="-453.04865"
         transform="matrix(0.8660254,0.5,0,1,0,0)"
         rx="27.496307"
         ry="23.8125" />
      <path
         inkscape:connector-curvature="0"
         id="path5399"
         d="m 1301.725,174.69724 c -7.0358,4.06213 -12.7,12.99655 -12.7,20.03235 v 133.35 c 0,7.0358 5.6642,9.42978 12.7,5.36765 l 133.35,-76.98966 c 7.0358,-4.06213 12.7,-12.99655 12.7,-20.03235 v -133.35 c 0,-7.035796 -5.6642,-9.429769 -12.7,-5.367648 z m 7.1438,15.71928 92.6041,-53.46501 c 14.6579,-8.46275 26.4584,-3.47535 26.4584,11.18258 v 66.14583 c 0,14.6579 -11.8005,33.27134 -26.4584,41.73409 l -92.6041,53.46501 z m 119.0609,-35.66641 c 0,14.6579 -11.8004,33.27129 -26.4583,41.73404 14.6579,-8.46277 26.4583,-3.4753 26.4583,11.18262 v -26.45833 z"
         style="opacity:1;fill:#0d0b0d;fill-opacity:1;stroke-width:0.26458332" />
      <ellipse
         cy="975.85791"
         cx="1614.4626"
         id="ellipse5401"
         style="opacity:0.42000002;fill:#0d0b0d;fill-opacity:1;stroke-width:0.34138846"
         transform="matrix(0.8660254,-0.5,0,1,0,0)"
         rx="27.496307"
         ry="23.8125" />
      <ellipse
         style="opacity:0.42000002;fill:#0d0b0d;fill-opacity:1;stroke-width:0.34138846"
         id="ellipse5403"
         cx="1545.7218"
         cy="1035.3892"
         transform="matrix(0.8660254,-0.5,0,1,0,0)"
         rx="27.496307"
         ry="23.8125" />
      <path
         inkscape:connector-curvature="0"
         id="path5405"
         d="m 1142.975,82.975187 c -7.0358,4.064485 -7.0358,10.608736 0,14.673215 l 133.35,77.034348 c 7.0358,4.06448 18.3642,4.06448 25.4,0 l 133.3498,-77.03443 c 7.0358,-4.064485 7.0358,-10.608737 0,-14.673216 l -133.35,-77.0343548 c -7.0358,-4.064479 -18.3642,-4.0644733 -25.4,1.16e-5 z m 26.9874,7.336628 92.6041,-53.496149 c 14.6579,-8.46766 38.2587,-8.46766 52.9166,6e-6 l 66.1458,38.211485 c 14.658,8.467661 14.658,22.101518 10e-5,30.569183 l -92.6041,53.49615 z"
         style="fill:#0d0b0d;fill-opacity:1;stroke-width:0.28439578" />
    </g>
    <text
       xml:space="preserve"
       style="font-style:normal;font-weight:normal;font-size:10.58333302px;line-height:1.25;font-family:sans-serif;letter-spacing:0px;word-spacing:0px;fill:#000000;fill-opacity:1;stroke:none;stroke-width:0.26458332"
       x="1593.4929"
       y="-449.55707"
       id="text5411"><tspan
         sodipodi:role="line"
         id="tspan5409"
         x="1593.4929"
         y="-449.55707"
         style="stroke-width:0.26458332">32 x 32</tspan></text>
  </g>
</svg>
